<?xml version="1.0" encoding="UTF-8"?>
<svg width="150px" height="159px" viewBox="0 0 150 159" version="1.1" xmlns="http://www.w3.org/2000/svg" xmlns:xlink="http://www.w3.org/1999/xlink">
    <title>Tower</title>
    <g id="Newsletter" stroke="none" stroke-width="1" fill="none" fill-rule="evenodd">
        <g id="W---Newsletter" transform="translate(-1071.000000, -459.000000)">
            <g id="Highlight-" transform="translate(100.000000, 410.000000)">
                <g id="Card" transform="translate(850.000000, 0.000000)">
                    <g id="Tower" transform="translate(122.000000, 50.000000)">
                        <path d="M90.9997654,73.4024275 C90.9997654,64.0184491 83.3924017,56.4110855 74.0084234,56.4110855 C64.624445,56.4110855 57.0170814,64.0184491 57.0170814,73.4024275 C57.0170814,82.7864058 64.624445,90.3937695 74.0084234,90.3937695 C83.3924017,90.3937695 90.9997654,82.7864058 90.9997654,73.4024275 Z" id="Stroke-1" stroke="#CCCCCC" stroke-width="2" stroke-linecap="round" stroke-linejoin="round" stroke-dasharray="31.408,14.657,2.094,14.657"></path>
                        <path d="M106.291973,73.4024275 C106.291973,55.5727327 91.8381182,41.1188777 74.0084234,41.1188777 C56.1787286,41.1188777 41.7248736,55.5727327 41.7248736,73.4024275 C41.7248736,91.2321223 56.1787286,105.685977 74.0084234,105.685977 C91.8381182,105.685977 106.291973,91.2321223 106.291973,73.4024275 Z" id="Stroke-3" stroke="#DDDDDD" stroke-width="2" stroke-linecap="round" stroke-linejoin="round" stroke-dasharray="29.846,13.928,1.99,13.928"></path>
                        <path d="M124.982449,73.4024275 C124.982449,45.2504924 102.160698,22.4284015 74.0084234,22.4284015 C45.8561485,22.4284015 23.0343974,45.2504924 23.0343974,73.4024275 C23.0343974,101.554702 45.8561485,124.376453 74.0084234,124.376453 C102.160698,124.376453 124.982449,101.554702 124.982449,73.4024275 Z" id="Stroke-5" stroke="#EEEEEE" stroke-width="2" stroke-linecap="round" stroke-linejoin="round" stroke-dasharray="29.454,13.745,1.964,13.745"></path>
                        <path d="M147.071194,73.4024275 C147.071194,33.0510487 114.359802,0.339656926 74.0084234,0.339656926 C33.6570446,0.339656926 0.945652814,33.0510487 0.945652814,73.4024275 C0.945652814,113.753806 33.6570446,146.465198 74.0084234,146.465198 C114.359802,146.465198 147.071194,113.753806 147.071194,73.4024275 Z" id="Stroke-7" stroke="#F5F5F5" stroke-width="2" stroke-linecap="round" stroke-linejoin="round" stroke-dasharray="29.368,13.705,1.958,13.705"></path>
                        <path d="M96.0246149,152.616777 C95.5583725,152.616777 95.0900911,152.457739 94.7064266,152.132524 L60.9476885,123.494297 C60.0889461,122.765708 59.9835998,121.479124 60.7118487,120.620381 C61.4404374,119.761639 62.7270219,119.656293 63.5857643,120.384542 L97.3445024,149.023109 C98.2032448,149.751358 98.308931,151.037942 97.5803422,151.896684 C97.1773076,152.372102 96.6026604,152.616777 96.0246149,152.616777" id="Fill-15" fill="#CCCCCC"></path>
                        <path d="M96.0246149,152.616777 C95.5583725,152.616777 95.0900911,152.457739 94.7064266,152.132524 L60.9476885,123.494297 C60.0889461,122.765708 59.9835998,121.479124 60.7118487,120.620381 C61.4404374,119.761639 62.7270219,119.656293 63.5857643,120.384542 L97.3445024,149.023109 C98.2032448,149.751358 98.308931,151.037942 97.5803422,151.896684 C97.1773076,152.372102 96.6026604,152.616777 96.0246149,152.616777 Z" id="Stroke-17" stroke="#666666" stroke-width="2" stroke-linecap="round" stroke-linejoin="round"></path>
                        <path d="M86.5732489,121.299118 C85.9918052,121.299118 85.4144394,121.051724 85.0110649,120.571888 L67.7631537,100.044648 C67.0389827,99.1825071 67.1504459,97.8962626 68.0125866,97.1717517 C68.8747273,96.4472409 70.1609719,96.5590439 70.8854827,97.4211846 L88.1333939,117.948425 C88.8575649,118.810566 88.7461017,120.09681 87.883961,120.821321 C87.5016558,121.142457 87.0360931,121.299118 86.5732489,121.299118" id="Fill-19" fill="#CCCCCC"></path>
                        <path d="M53.0698907,152.592378 C52.4938842,152.592378 51.9219556,152.349742 51.5185812,151.877382 C50.7872738,151.021358 50.8885422,149.734094 51.7449058,149.002787 L85.2480942,120.389027 C86.1044578,119.65772 87.391382,119.758988 88.1226894,120.615352 C88.8539968,121.471376 88.7527284,122.75864 87.8963647,123.489947 L54.3931764,152.104047 C54.0091721,152.43198 53.5381721,152.592378 53.0698907,152.592378" id="Fill-21" fill="#CCCCCC"></path>
                        <path d="M78.5251978,96.6107316 L70.0601113,96.6107316 C68.9339251,96.6107316 68.0211502,95.6976169 68.0211502,94.5717706 C68.0211502,93.4459242 68.9339251,92.5328095 70.0601113,92.5328095 L78.5251978,92.5328095 C79.651384,92.5328095 80.5641589,93.4459242 80.5641589,94.5717706 C80.5641589,95.6976169 79.651384,96.6107316 78.5251978,96.6107316" id="Fill-23" fill="#CCCCCC"></path>
                        <path d="M78.5251978,96.6107316 L70.0601113,96.6107316 C68.9339251,96.6107316 68.0211502,95.6976169 68.0211502,94.5717706 C68.0211502,93.4459242 68.9339251,92.5328095 70.0601113,92.5328095 L78.5251978,92.5328095 C79.651384,92.5328095 80.5641589,93.4459242 80.5641589,94.5717706 C80.5641589,95.6976169 79.651384,96.6107316 78.5251978,96.6107316 Z" id="Stroke-25" stroke="#666666" stroke-width="2" stroke-linecap="round" stroke-linejoin="round"></path>
                        <path d="M86.5732489,121.299118 C85.9918052,121.299118 85.4144394,121.051724 85.0110649,120.571888 L67.7631537,100.044648 C67.0389827,99.1825071 67.1504459,97.8962626 68.0125866,97.1717517 C68.8747273,96.4472409 70.1609719,96.5590439 70.8854827,97.4211846 L88.1333939,117.948425 C88.8575649,118.810566 88.7461017,120.09681 87.883961,120.821321 C87.5016558,121.142457 87.0360931,121.299118 86.5732489,121.299118 Z" id="Stroke-27" stroke="#666666" stroke-width="2" stroke-linecap="round" stroke-linejoin="round"></path>
                        <path d="M62.265639,121.274378 C61.808232,121.274378 61.3481065,121.121456 60.9681801,120.807116 C60.0999225,120.090082 59.9775848,118.804856 60.6949593,117.936599 L77.6329485,97.4351855 C78.3503229,96.5662483 79.6352082,96.4442504 80.5034658,97.1616249 C81.3717234,97.8789994 81.494061,99.1642245 80.7766866,100.032482 L63.8386974,120.533895 C63.4353229,121.022227 62.8528597,121.274378 62.265639,121.274378" id="Fill-29" fill="#CCCCCC"></path>
                        <path d="M62.265639,121.274378 C61.808232,121.274378 61.3481065,121.121456 60.9681801,120.807116 C60.0999225,120.090082 59.9775848,118.804856 60.6949593,117.936599 L77.6329485,97.4351855 C78.3503229,96.5662483 79.6352082,96.4442504 80.5034658,97.1616249 C81.3717234,97.8789994 81.494061,99.1642245 80.7766866,100.032482 L63.8386974,120.533895 C63.4353229,121.022227 62.8528597,121.274378 62.265639,121.274378 Z" id="Stroke-31" stroke="#666666" stroke-width="2" stroke-linecap="round" stroke-linejoin="round"></path>
                        <path d="M53.0698907,152.592378 C52.4938842,152.592378 51.9219556,152.349742 51.5185812,151.877382 C50.7872738,151.021358 50.8885422,149.734094 51.7449058,149.002787 L85.2480942,120.389027 C86.1044578,119.65772 87.391382,119.758988 88.1226894,120.615352 C88.8539968,121.471376 88.7527284,122.75864 87.8963647,123.489947 L54.3931764,152.104047 C54.0091721,152.43198 53.5381721,152.592378 53.0698907,152.592378 Z" id="Stroke-33" stroke="#666666" stroke-width="2" stroke-linecap="round" stroke-linejoin="round"></path>
                        <path d="M86.5722294,121.76852 L62.2667944,121.76852 C61.1406082,121.76852 60.2278333,120.855406 60.2278333,119.729559 C60.2278333,118.603713 61.1406082,117.690598 62.2667944,117.690598 L86.5722294,117.690598 C87.6984156,117.690598 88.6111905,118.603713 88.6111905,119.729559 C88.6111905,120.855406 87.6984156,121.76852 86.5722294,121.76852" id="Fill-35" fill="#CCCCCC"></path>
                        <path d="M86.5722294,121.76852 L62.2667944,121.76852 C61.1406082,121.76852 60.2278333,120.855406 60.2278333,119.729559 C60.2278333,118.603713 61.1406082,117.690598 62.2667944,117.690598 L86.5722294,117.690598 C87.6984156,117.690598 88.6111905,118.603713 88.6111905,119.729559 C88.6111905,120.855406 87.6984156,121.76852 86.5722294,121.76852 Z" id="Stroke-37" stroke="#666666" stroke-width="2" stroke-linecap="round" stroke-linejoin="round"></path>
                        <path d="M97.4224926,155.530521 C96.5474385,155.530521 95.7386506,154.96301 95.4718866,154.082179 L74.2704299,84.093142 L53.6534753,154.067226 C53.3350576,155.147536 52.2017351,155.765001 51.1214255,155.446923 C50.041116,155.128506 49.4236506,153.994843 49.7417286,152.914874 L72.2875403,76.3943649 C72.5420706,75.5298455 73.3342069,74.9351485 74.2354277,74.9317502 L74.2435835,74.9317502 C75.1414061,74.9317502 75.9342221,75.5193108 76.1948693,76.3794126 L99.3747978,152.899921 C99.7010316,153.977852 99.0920619,155.115932 98.014471,155.442506 C97.8173714,155.502315 97.6182329,155.530521 97.4224926,155.530521" id="Fill-39" fill="#DDDDDD"></path>
                        <path d="M74.0939238,83.3586403 C75.5290126,83.3586403 76.8516186,82.8906987 77.9295494,82.1060385 L76.1947333,76.3796165 C75.9340861,75.5195147 75.14161,74.9316143 74.2434476,74.9316143 L74.2356316,74.9316143 C73.3344108,74.9350126 72.5422745,75.5297095 72.2877442,76.394229 L70.5457918,82.3061965 C71.5676511,82.9695385 72.784571,83.3586403 74.0939238,83.3586403" id="Fill-41" fill="#999999"></path>
                        <path d="M97.4224926,155.530521 C96.5474385,155.530521 95.7386506,154.96301 95.4718866,154.082179 L74.2704299,84.093142 L53.6534753,154.067226 C53.3350576,155.147536 52.2017351,155.765001 51.1214255,155.446923 C50.041116,155.128506 49.4236506,153.994843 49.7417286,152.914874 L72.2875403,76.3943649 C72.5420706,75.5298455 73.3342069,74.9351485 74.2354277,74.9317502 L74.2435835,74.9317502 C75.1414061,74.9317502 75.9342221,75.5193108 76.1948693,76.3794126 L99.3747978,152.899921 C99.7010316,153.977852 99.0920619,155.115932 98.014471,155.442506 C97.8173714,155.502315 97.6182329,155.530521 97.4224926,155.530521 Z" id="Stroke-43" stroke="#666666" stroke-width="2" stroke-linecap="round" stroke-linejoin="round"></path>
                        <path d="M80.6260753,73.2379853 C80.6260753,76.845587 77.7015255,79.7701368 74.0939238,79.7701368 C70.4863221,79.7701368 67.5617723,76.845587 67.5617723,73.2379853 C67.5617723,69.6303835 70.4863221,66.7054939 74.0939238,66.7054939 C77.7015255,66.7054939 80.6260753,69.6303835 80.6260753,73.2379853" id="Fill-45" fill="#7FDB65"></path>
                        <path d="M74.0939238,76.0374108 C71.1350515,76.0374108 68.6390234,74.0691338 67.8356727,71.3715883 C67.6593026,71.9632268 67.5614325,72.5888481 67.5614325,73.2379173 C67.5614325,76.845519 70.4863221,79.7700688 74.0939238,79.7700688 C77.7015255,79.7700688 80.6260753,76.845519 80.6260753,73.2379173 C80.6260753,72.5888481 80.5282052,71.9632268 80.3521749,71.3715883 C79.5484844,74.0691338 77.0524563,76.0374108 74.0939238,76.0374108" id="Fill-47" fill="#51A33D"></path>
                        <path d="M76.8933833,70.9050061 C76.8933833,71.6781121 76.2667426,72.3047528 75.4936366,72.3047528 C74.7205305,72.3047528 74.0938898,71.6781121 74.0938898,70.9050061 C74.0938898,70.1319 74.7205305,69.5052593 75.4936366,69.5052593 C76.2667426,69.5052593 76.8933833,70.1319 76.8933833,70.9050061" id="Fill-49" fill="#FFFFFF"></path>
                        <path d="M80.6260753,73.2379853 C80.6260753,76.845587 77.7015255,79.7701368 74.0939238,79.7701368 C70.4863221,79.7701368 67.5617723,76.845587 67.5617723,73.2379853 C67.5617723,69.6303835 70.4863221,66.7054939 74.0939238,66.7054939 C77.7015255,66.7054939 80.6260753,69.6303835 80.6260753,73.2379853 Z" id="Stroke-51" stroke="#666666" stroke-width="2" stroke-linecap="round" stroke-linejoin="round"></path>
                        <path d="M129.45892,71.5838442 L114.683249,65.7513961 C114.070881,65.5094394 113.4072,65.9610693 113.4072,66.6193139 L113.4072,72.6108009 C113.4072,73.136513 112.973241,73.5585779 112.447529,73.5436255 L100.158371,73.1925844 C99.0885957,73.162 98.8174139,74.663355 99.8307775,75.008619 L117.167044,80.9185476 C117.772275,81.1251623 118.401295,80.6748918 118.401295,80.0353377 L118.401295,73.9820022 C118.401295,73.4539113 118.838992,73.0311667 119.366743,73.0491775 L129.084091,73.3845866 C130.131438,73.4206082 130.433884,71.9685281 129.45892,71.5838442" id="Fill-53" fill="#7FDB65"></path>
                        <path d="M19.6140403,74.3701524 L34.3900511,80.2029403 C35.002419,80.4445571 35.665761,79.9932671 35.665761,79.3346827 L35.665761,73.3431957 C35.665761,72.8174835 36.1000597,72.3954186 36.625432,72.410371 L48.91459,72.7617519 C49.9843649,72.7919965 50.2555468,71.2909814 49.2425229,70.9453775 L31.9059169,65.0354489 C31.3006853,64.829174 30.6716658,65.2791048 30.6716658,65.9186589 L30.6716658,71.9719944 C30.6716658,72.5000853 30.2339688,72.9228299 29.7062177,72.904819 L19.9888693,72.5697498 C18.9415229,72.5333883 18.6390771,73.9854684 19.6140403,74.3701524" id="Fill-55" fill="#7FDB65"></path>
                        <polyline id="Stroke-57" stroke="#9FF487" stroke-width="4" stroke-linecap="round" stroke-linejoin="round" points="108.486949 50.1306097 101.57691 58.0574106 99.6731998 53.5244604 92.2843448 60.6183457"></polyline>
                        <polyline id="Stroke-59" stroke="#9FF487" stroke-width="4" stroke-linecap="round" stroke-linejoin="round" points="106.172456 96.8055203 97.1561703 92.4577758 100.837854 89.5689078 92.4655405 84.5717541"></polyline>
                        <polyline id="Stroke-61" stroke="#9FF487" stroke-width="4" stroke-linecap="round" stroke-linejoin="round" points="38.2517074 50.1306097 45.1617463 58.0574106 47.0654563 53.5244604 54.4543113 60.6183457"></polyline>
                        <polyline id="Stroke-63" stroke="#9FF487" stroke-width="4" stroke-linecap="round" stroke-linejoin="round" points="40.5662 96.8055203 49.5824857 92.4577758 45.9008017 89.5689078 54.2731156 84.5717541"></polyline>
                        <polyline id="Stroke-65" stroke="#C9F9BB" stroke-width="2" stroke-linecap="round" stroke-linejoin="round" points="128.880671 98.908029 123.671805 96.3963688 125.798781 94.7274792 120.962026 91.8403104"></polyline>
                        <polyline id="Stroke-67" stroke="#C9F9BB" stroke-width="2" stroke-linecap="round" stroke-linejoin="round" points="73.6424639 49.8842013 71.7353556 44.4248831 74.4196478 44.7487381 73.0406305 39.2870411"></polyline>
                        <polyline id="Stroke-69" stroke="#C9F9BB" stroke-width="2" stroke-linecap="round" stroke-linejoin="round" points="21.3554489 97.3705165 26.5643147 94.8585165 24.4373385 93.1896268 29.2740939 90.3027978"></polyline>
                        <polyline id="Stroke-71" stroke="#C9F9BB" stroke-width="2" stroke-linecap="round" stroke-linejoin="round" points="45.7084258 22.6880972 47.1530297 28.2877639 49.2059236 26.5281405 51.0909431 31.8358959"></polyline>
                        <polyline id="Stroke-73" stroke="#C9F9BB" stroke-width="2" stroke-linecap="round" stroke-linejoin="round" points="111.628036 27.8127199 106.329456 30.1293195 108.393224 31.8763693 103.452482 34.5813909"></polyline>
                        <line x1="23.6274632" y1="26.6828976" x2="26.5108939" y2="29.5663284" id="Stroke-75" stroke="#CCCCCC" stroke-width="2" stroke-linecap="round" stroke-linejoin="round"></line>
                        <path d="M27.9527452,29.0858812 C27.4219357,28.5550716 26.5611543,28.5550716 26.0303448,29.0858812 C25.4995353,29.6166907 25.4995353,30.4774721 26.0303448,31.0082816 C26.5611543,31.5390911 27.4219357,31.5390911 27.9527452,31.0082816 C28.4835548,30.4774721 28.4835548,29.6166907 27.9527452,29.0858812" id="Fill-77" fill="#CCCCCC"></path>
                        <line x1="14.496282" y1="30.0471494" x2="26.9917149" y2="17.5517165" id="Stroke-79" stroke="#CCCCCC" stroke-width="2" stroke-linecap="round" stroke-linejoin="round"></line>
                        <polygon id="Fill-81" fill="#FFFFFF" points="27.2318366 25.0008227 21.9454903 30.2875089 14.2558885 22.5979071 19.5425747 17.3115608"></polygon>
                        <polygon id="Stroke-83" stroke="#CCCCCC" stroke-width="2" stroke-linecap="round" stroke-linejoin="round" points="27.2318366 25.0008227 21.9454903 30.2875089 14.2558885 22.5979071 19.5425747 17.3115608"></polygon>
                        <polygon id="Fill-85" fill="#FFFFFF" points="39.0062589 9.86245455 27.4721961 21.3965173 23.1468801 17.0712013 34.6809429 5.53713853"></polygon>
                        <line x1="25.3095041" y1="15.3891264" x2="29.3945626" y2="19.4741848" id="Stroke-87" stroke="#CCCCCC" stroke-linecap="round" stroke-linejoin="round"></line>
                        <line x1="27.2318366" y1="13.4667939" x2="31.316895" y2="17.5518524" id="Stroke-89" stroke="#CCCCCC" stroke-linecap="round" stroke-linejoin="round"></line>
                        <line x1="29.154203" y1="11.5444955" x2="33.2392615" y2="15.6295539" id="Stroke-91" stroke="#CCCCCC" stroke-linecap="round" stroke-linejoin="round"></line>
                        <line x1="31.0765355" y1="9.62202706" x2="35.1615939" y2="13.7070855" id="Stroke-93" stroke="#CCCCCC" stroke-linecap="round" stroke-linejoin="round"></line>
                        <line x1="32.9989019" y1="7.69969459" x2="37.0839604" y2="11.784753" id="Stroke-95" stroke="#CCCCCC" stroke-linecap="round" stroke-linejoin="round"></line>
                        <line x1="36.1227262" y1="6.97888788" x2="25.0691786" y2="18.0324355" id="Stroke-97" stroke="#CCCCCC" stroke-linecap="round" stroke-linejoin="round"></line>
                        <line x1="37.5645095" y1="8.42067121" x2="26.5109619" y2="19.4742188" id="Stroke-99" stroke="#CCCCCC" stroke-linecap="round" stroke-linejoin="round"></line>
                        <polygon id="Stroke-101" stroke="#CCCCCC" stroke-width="2" stroke-linecap="round" stroke-linejoin="round" points="39.0062589 9.86245455 27.4721961 21.3965173 23.1468801 17.0712013 34.6809429 5.53713853"></polygon>
                        <polygon id="Fill-103" fill="#FFFFFF" points="18.340981 30.5276645 6.80691818 42.0617273 2.48160216 37.7364113 14.0156649 26.2023485"></polygon>
                        <line x1="4.64422619" y1="36.0543364" x2="8.72928463" y2="40.1393948" id="Stroke-105" stroke="#CCCCCC" stroke-linecap="round" stroke-linejoin="round"></line>
                        <line x1="6.56659264" y1="34.1320379" x2="10.6516511" y2="38.2170963" id="Stroke-107" stroke="#CCCCCC" stroke-linecap="round" stroke-linejoin="round"></line>
                        <line x1="8.48892511" y1="32.2097054" x2="12.5739835" y2="36.2947639" id="Stroke-109" stroke="#CCCCCC" stroke-linecap="round" stroke-linejoin="round"></line>
                        <line x1="10.4112916" y1="30.2874069" x2="14.49635" y2="34.3724654" id="Stroke-111" stroke="#CCCCCC" stroke-linecap="round" stroke-linejoin="round"></line>
                        <line x1="12.333658" y1="28.3651084" x2="16.4187165" y2="32.4501669" id="Stroke-113" stroke="#CCCCCC" stroke-linecap="round" stroke-linejoin="round"></line>
                        <line x1="15.4574483" y1="27.6441318" x2="4.40390065" y2="38.6976794" id="Stroke-115" stroke="#CCCCCC" stroke-linecap="round" stroke-linejoin="round"></line>
                        <line x1="16.8991976" y1="29.0858812" x2="5.84565" y2="40.1394288" id="Stroke-117" stroke="#CCCCCC" stroke-linecap="round" stroke-linejoin="round"></line>
                        <polygon id="Stroke-119" stroke="#CCCCCC" stroke-width="2" stroke-linecap="round" stroke-linejoin="round" points="18.340981 30.5276645 6.80691818 42.0617273 2.48160216 37.7364113 14.0156649 26.2023485"></polygon>
                        <path d="M140.274657,139.428913 C140.274657,134.54934 136.318733,130.593416 131.439159,130.593416 C126.559586,130.593416 122.603661,134.54934 122.603661,139.428913 C122.603661,144.308487 126.559586,148.264411 131.439159,148.264411 C136.318733,148.264411 140.274657,144.308487 140.274657,139.428913" id="Fill-121" fill="#C9F9BB"></path>
                        <line x1="131.439159" y1="139.089087" x2="131.439159" y2="154.721121" id="Stroke-123" stroke="#9FF487" stroke-width="2" stroke-linecap="round" stroke-linejoin="round"></line>
                        <line x1="131.439159" y1="142.147528" x2="133.817947" y2="139.76874" id="Stroke-125" stroke="#9FF487" stroke-width="2" stroke-linecap="round" stroke-linejoin="round"></line>
                        <line x1="131.439159" y1="145.885623" x2="128.040891" y2="142.487355" id="Stroke-127" stroke="#9FF487" stroke-width="2" stroke-linecap="round" stroke-linejoin="round"></line>
                        <path d="M124.642623,142.631799 C124.642623,138.690487 121.447571,135.495435 117.506259,135.495435 C113.564947,135.495435 110.369895,138.690487 110.369895,142.631799 C110.369895,146.57311 113.564947,149.768162 117.506259,149.768162 C121.447571,149.768162 124.642623,146.57311 124.642623,142.631799" id="Fill-129" fill="#C9F9BB"></path>
                        <line x1="117.506259" y1="142.435515" x2="117.506259" y2="155.205528" id="Stroke-131" stroke="#9FF487" stroke-width="2" stroke-linecap="round" stroke-linejoin="round"></line>
                        <line x1="117.506259" y1="148.456635" x2="119.54522" y2="146.417674" id="Stroke-133" stroke="#9FF487" stroke-width="2" stroke-linecap="round" stroke-linejoin="round"></line>
                        <line x1="117.424904" y1="146.030067" x2="115.976902" y2="144.582065" id="Stroke-135" stroke="#9FF487" stroke-width="2" stroke-linecap="round" stroke-linejoin="round"></line>
                        <path d="M21.247282,150.303372 L9.1895461,150.303372 C7.80407208,150.303372 6.82231234,148.951541 7.25049416,147.634372 L13.2793621,129.083905 C13.8896911,127.205342 16.547137,127.205342 17.157466,129.083905 L23.186334,147.634372 C23.6145158,148.951541 22.6324162,150.303372 21.247282,150.303372" id="Fill-137" fill="#C9F9BB"></path>
                        <line x1="15.2183801" y1="142.506835" x2="15.2183801" y2="155.420255" id="Stroke-139" stroke="#9FF487" stroke-width="2" stroke-linecap="round" stroke-linejoin="round"></line>
                        <line x1="2" y1="156" x2="147" y2="156" id="Stroke-9" stroke="#666666" stroke-width="2" stroke-linecap="round" stroke-linejoin="round"></line>
                    </g>
                </g>
            </g>
        </g>
    </g>
</svg>