<?xml version="1.0" encoding="UTF-8"?>
<svg width="183px" height="155px" viewBox="0 0 183 155" version="1.1" xmlns="http://www.w3.org/2000/svg" xmlns:xlink="http://www.w3.org/1999/xlink">
    <title>Employees Graphic</title>
    <defs>
        <circle id="path-1" cx="29.0542169" cy="29.9578313" r="29.0542169"></circle>
        <circle id="path-3" cx="29.0542169" cy="29.0542169" r="29.0542169"></circle>
        <circle id="path-5" cx="34.5361446" cy="34.5361446" r="34.5361446"></circle>
        <circle id="path-7" cx="34.5361446" cy="34.5361446" r="34.5361446"></circle>
    </defs>
    <g id="Newsletter" stroke="none" stroke-width="1" fill="none" fill-rule="evenodd">
        <g id="W---Newsletter" transform="translate(-204.000000, -461.000000)">
            <g id="Highlight-" transform="translate(100.000000, 410.000000)">
                <g id="Employees-Graphic" transform="translate(104.000000, 51.000000)">
                    <g id="Face-01" transform="translate(61.397590, 0.000000)">
                        <mask id="mask-2" fill="white">
                            <use xlink:href="#path-1"></use>
                        </mask>
                        <circle stroke="#CCCCCC" stroke-width="2" cx="29.0542169" cy="29.9578313" r="28.0542169"></circle>
                        <path d="M33.3722734,44.6626506 C33.6459354,44.6626506 33.9020385,44.7557754 34.1063193,44.915273 C34.3063715,45.0714691 34.4567246,45.2913185 34.5251993,45.5496965 L34.5251993,45.5496965 L35.737596,51.3790273 C35.8197131,51.7740438 36.0165014,52.1250311 36.2918026,52.3963614 C36.5670975,52.6676855 36.920903,52.8593556 37.3170599,52.9357387 C44.7822355,54.3751003 50.3869802,56.1086426 54.1204921,58.1625655 C55.8807134,59.1309189 57.2110131,60.1616548 58.0920965,61.2760266 C58.8884036,62.2831756 59.3012048,63.3526586 59.3012048,64.4939759 C59.3012048,69.2867524 55.6645592,74.3937315 50.0264142,78.2196156 C44.6840157,81.8448146 37.500173,84.3253012 29.6024096,84.3253012 C21.7046463,84.3253012 14.5208036,81.8448146 9.1784051,78.2196156 C3.54026009,74.3937315 -0.0963855422,69.2867524 -0.0963855422,64.4939759 C-0.0963855422,63.3526589 0.316415397,62.2831762 1.11272207,61.2760275 C1.99380489,60.161656 3.3241038,59.1309204 5.08432403,58.1625672 C8.81783368,56.1086448 14.4225751,54.3751027 21.8877521,52.9357401 C22.2838851,52.8593592 22.6376717,52.6677032 22.9129621,52.3963982 C23.1882529,52.1250929 23.3850472,51.7741383 23.4671955,51.3791605 L23.4671955,51.3791605 L24.67962,45.5496965 C24.7480947,45.2913185 24.8984478,45.0714691 25.0985,44.915273 C25.3027807,44.7557754 25.5588838,44.6626506 25.8325459,44.6626506 L25.8325459,44.6626506 Z" id="Path" stroke="#666666" stroke-width="2" fill="#F5F5F5" mask="url(#mask-2)"></path>
                        <path d="M41.8032239,54.6782875 L45.1729739,55.5573268 L45.0557711,58.366807 L34.2400425,63.4886319 L23.5549332,63.2352754 L14.2989495,59.2965779 L12.1436355,56.3329859 L16.0552675,54.6983211 C20.7830146,56.7877074 25.2997896,57.824229 29.6024096,57.824229 C33.9362344,57.824229 38.003236,56.7758216 41.8032239,54.6782875 L41.8032239,54.6782875 Z" id="Path-5" stroke="#666666" stroke-width="2" fill="#999999" mask="url(#mask-2)"></path>
                        <g id="Group-8" mask="url(#mask-2)">
                            <g transform="translate(5.481928, -0.192771)">
                                <path d="M23.7833326,49.8314836 L23.7833326,49.8314836 C15.6628871,49.8314836 8.89978358,43.6951179 8.22465352,35.7163082 L7.31818519,24.9838648 C6.51440273,15.4860124 14.1166977,7.34078068 23.7833326,7.34078068 C33.4499675,7.34078068 41.0522624,15.4860124 40.24848,24.9838648 L39.3420116,35.7163082 C38.6668816,43.6951179 31.903778,49.8314836 23.7833326,49.8314836" id="Fill-35" stroke="none" fill="#F5F5F5"></path>
                                <path d="M35.1602183,13.4924902 C35.4138961,19.1084325 30.8646133,24.7074872 25.7076641,25.4186923 C21.0054025,26.0671906 11.263916,24.7642337 10.4774608,28.8916067 C9.69100567,33.0189797 10.4774608,49.8314836 27.0565767,48.6511863 C26.0240756,49.4380512 24.6943691,49.8314836 23.0674572,49.8314836 C10.5372529,49.8314836 6.18719027,33.237965 7.7808826,28.478009 L7.25982992,28.5861321 L4.90271419,24.3271038 C2.57415884,21.7425678 4.06272562,19.6759666 9.36841453,18.1273002 C14.6741034,16.5786338 24.1901852,13.4302971 35.1602183,13.4924902 Z" id="Path" stroke="none" fill="#DDDDDD"></path>
                                <path d="M23.7833326,7.16048338 C28.4886681,7.16048338 32.9997941,9.132116 36.1611884,12.5708841 C39.3009144,15.9886588 40.8169169,20.4005055 40.4276039,24.9988488 L40.4276039,24.9988488 L39.5211378,35.7312655 C39.1829586,39.7339765 37.2847773,43.3010384 34.4571785,45.8687725 C31.6248964,48.4407595 27.8587625,50.0117809 23.7833326,50.0117809 C19.7079027,50.0117809 15.9417688,48.4407595 13.1094866,45.8687725 C10.2818879,43.3010384 8.38370651,39.7339765 8.04552958,35.7312922 L8.04552958,35.7312922 L7.13904425,24.9986478 C6.74974822,20.4005055 8.26575078,15.9886588 11.4052226,12.5711607 C14.5668711,9.132116 19.0779971,7.16048338 23.7833326,7.16048338 Z" id="Fill-37" stroke="#666666" stroke-width="2" fill="#FFFFFF"></path>
                                <path d="M18.3880829,30.9467268 C18.3880829,31.9240129 17.5949232,32.7171727 16.617637,32.7171727 C15.6403508,32.7171727 14.847191,31.9240129 14.847191,30.9467268 C14.847191,29.9694406 15.6403508,29.1762808 16.617637,29.1762808 C17.5949232,29.1762808 18.3880829,29.9694406 18.3880829,30.9467268" id="Fill-39" stroke="none" fill="#666666"></path>
                                <path d="M32.7194741,30.9467268 C32.7194741,31.9240129 31.9263143,32.7171727 30.9490282,32.7171727 C29.971742,32.7171727 29.1785822,31.9240129 29.1785822,30.9467268 C29.1785822,29.9694406 29.971742,29.1762808 30.9490282,29.1762808 C31.9263143,29.1762808 32.7194741,29.9694406 32.7194741,30.9467268" id="Fill-41" stroke="none" fill="#666666"></path>
                                <path d="M34.0070313,28.3067615 C33.5491175,28.3067615 33.1087195,28.0552842 32.8885205,27.6186396 C32.3830637,26.616484 31.4897564,25.8282717 30.4363044,25.4554347 C29.7844653,25.2252267 29.4441578,24.5108311 29.6743658,23.8577409 C29.9045739,23.2071529 30.6177183,22.8643431 31.2708085,23.0970534 C32.951077,23.6913405 34.3198139,24.8961793 35.1230398,26.492622 C35.4345713,27.1094294 35.1855963,27.8626101 34.5687889,28.1741416 C34.3886261,28.264223 34.195952,28.3067615 34.0070313,28.3067615" id="Fill-135" stroke="none" fill="#7FDB65" transform="translate(32.429888, 25.665429) rotate(-20.000000) translate(-32.429888, -25.665429) "></path>
                                <path d="M16.4648626,28.3067615 C16.0069488,28.3067615 15.5665508,28.0552842 15.3463518,27.6186396 C14.840895,26.616484 13.9475877,25.8282717 12.8941357,25.4554347 C12.2422967,25.2252267 11.9019891,24.5108311 12.1321972,23.8577409 C12.3624052,23.2071529 13.0755497,22.8643431 13.7286399,23.0970534 C15.4089083,23.6913405 16.7776453,24.8961793 17.5808711,26.492622 C17.8924027,27.1094294 17.6434277,27.8626101 17.0266203,28.1741416 C16.8464574,28.264223 16.6537833,28.3067615 16.4648626,28.3067615" id="Fill-135" stroke="none" fill="#7FDB65" transform="translate(14.887719, 25.665429) scale(-1, 1) rotate(-20.000000) translate(-14.887719, -25.665429) "></path>
                                <path d="M30.855674,37.8550069 C30.9323933,37.3226928 30.5051257,36.8482133 29.9645496,36.8482133 L17.6021156,36.8482133 C17.0615394,36.8482133 16.6342718,37.3226928 16.7109911,37.8550069 C17.2031751,41.289672 20.1822455,43.9299971 23.7833326,43.9299971 C27.3844196,43.9299971 30.36349,41.289672 30.855674,37.8550069 Z" id="Fill-43" stroke="none" fill="#666666"></path>
                                <path d="M22.6835829,1.67855567 C28.351178,1.67855567 35.8836649,5.10963861 39.690608,9.25059459 C43.3449462,13.2285547 45.1086673,20.4588125 44.7984374,24.1232407 L44.7984374,24.1232407 L44.6328713,25.9617371 C43.905235,31.7565196 42.0990944,38.2916551 39.2238787,45.5671143 L39.091,45.897 L39.0211086,45.5344399 C38.1118994,40.8333345 37.9464352,37.8155703 38.0808161,36.4105032 L38.0930584,36.2940167 C38.4453665,32.0347044 38.5935802,30.0209663 38.5935802,29.751503 C38.5935802,28.6043171 38.2988454,27.6901725 37.7977824,26.9521326 C37.2591585,26.1587673 36.4701096,25.5610823 35.4769651,25.1302363 C33.4810382,24.2643633 30.5814972,24.1011938 27.5824091,24.0283739 L26.6805003,24.008626 C23.2673468,23.9396211 19.8043633,23.9466305 17.833761,22.6642689 C15.7209857,21.2893889 14.3850789,19.8049635 13.5779182,18.3055724 C12.5509912,16.3979409 12.38768,14.4811317 12.4915601,12.7994623 C12.5468732,11.9040225 12.6855709,10.9517452 12.9920602,9.99053292 C12.1875549,10.6184922 11.4389832,11.3134984 10.7545785,12.0639752 C7.71574738,15.3961733 5.88212161,19.8875431 6.19650623,24.727307 L6.19650623,24.727307 L7.12846478,35.8006222 C7.21175321,36.78494 7.22105324,37.7735817 7.15618512,38.7663047 C3.69479485,33.000665 1.85237292,28.2651121 1.69424023,24.5449462 C1.43115048,18.3556028 1.90218874,13.3592153 5.6763037,9.25087117 C9.48350098,5.10963861 17.0159878,1.67855567 22.6835829,1.67855567 Z" id="Path" stroke="#666666" stroke-width="2" fill="#9FF487" transform="translate(23.233458, 25.845168) scale(-1, 1) translate(-23.233458, -25.845168) "></path>
                            </g>
                        </g>
                    </g>
                    <g id="Face-03" transform="translate(61.397590, 95.192771)">
                        <mask id="mask-4" fill="white">
                            <use xlink:href="#path-3"></use>
                        </mask>
                        <circle stroke="#CCCCCC" stroke-width="2" cx="29.0542169" cy="29.0542169" r="28.0542169"></circle>
                        <ellipse id="Oval" stroke="#666666" stroke-width="2" fill="#51A33D" mask="url(#mask-4)" cx="29.6024096" cy="67.9759036" rx="29.6987952" ry="16.5421687"></ellipse>
                        <path d="M36.5834084,45.9518072 C36.838183,45.9518072 37.0725864,46.0475912 37.2503299,46.2066792 C37.4280733,46.3657672 37.549157,46.5881594 37.5772921,46.8413757 L37.5772921,46.8413757 L38.3501833,53.7973967 C38.3700116,53.9759025 38.3412125,54.1528705 38.2711443,54.3116233 C38.2010793,54.4703688 38.0897486,54.6109008 37.9445094,54.7165425 C34.7916117,57.0098452 31.9847805,58.2048193 29.5001588,58.2048193 C27.0235512,58.2048193 24.2800513,57.0139336 21.2446644,54.7293775 C20.962334,54.5168803 20.8131069,54.171158 20.8521294,53.8199555 L20.8521294,53.8199555 L21.6275272,46.8413757 C21.6556623,46.5881594 21.7767459,46.3657672 21.9544894,46.2066792 C22.1322329,46.0475912 22.3666363,45.9518072 22.6214109,45.9518072 L22.6214109,45.9518072 Z" id="Rectangle" stroke="#666666" stroke-width="2" fill="#F5F5F5" mask="url(#mask-4)"></path>
                        <g id="Group-5" mask="url(#mask-4)">
                            <g transform="translate(9.867470, -1.096386)">
                                <path d="M19.0171859,50.6707913 L19.0171859,50.6707913 C10.5307667,50.6707913 3.46062737,44.166163 2.75749195,35.7085198 L1.80913492,24.3319889 C0.969626253,14.2641405 8.91430587,5.63008792 19.0171859,5.63008792 C29.1200658,5.63008792 37.0647455,14.2641405 36.2252368,24.3319889 L35.2768798,35.7085198 C34.5737443,44.166163 27.5036051,50.6707913 19.0171859,50.6707913" id="Fill-119" stroke="none" fill="#F5F5F5" fill-rule="evenodd"></path>
                                <path d="M19.0171859,5.37895727 C23.9030097,5.37895727 28.6018272,7.44075674 31.9099369,11.0352931 C35.2179317,14.6297047 36.8819799,19.4845882 36.4748194,24.35276 L36.4748194,24.35276 L35.5264411,35.7295467 C35.1724822,39.9888526 33.1805849,43.7856412 30.2108585,46.5185026 C27.2409283,49.2515516 23.2915292,50.9219219 19.0171859,50.9219219 C14.7428425,50.9219219 10.7934434,49.2515516 7.82351318,46.5185026 C4.85378684,43.7856412 2.86188953,39.9888526 2.50790931,35.729291 L2.50790931,35.729291 L1.55952944,24.3524865 C1.15239183,19.4845882 2.81644001,14.6297047 6.12443481,11.0352931 C9.43254453,7.44075674 14.131362,5.37895727 19.0171859,5.37895727 Z" id="Path" stroke="#666666" stroke-width="2" fill="#F5F5F5" fill-rule="evenodd"></path>
                                <path d="M14.0126633,25.022613 C14.0126633,26.0585492 13.1719035,26.8993089 12.1359673,26.8993089 C11.1000311,26.8993089 10.2592713,26.0585492 10.2592713,25.022613 C10.2592713,23.9866768 11.1000311,23.145917 12.1359673,23.145917 C13.1719035,23.145917 14.0126633,23.9866768 14.0126633,25.022613" id="Fill-123" stroke="none" fill="#666666" fill-rule="evenodd"></path>
                                <path d="M27.7751004,25.022613 C27.7751004,26.0585492 26.9343406,26.8993089 25.8984044,26.8993089 C24.8624683,26.8993089 24.0217085,26.0585492 24.0217085,25.022613 C24.0217085,23.9866768 24.8624683,23.145917 25.8984044,23.145917 C26.9343406,23.145917 27.7751004,23.9866768 27.7751004,25.022613" id="Fill-125" stroke="none" fill="#666666" fill-rule="evenodd"></path>
                                <path d="M19.0171859,41.9128767 L19.0171859,41.9128767 C14.87219,41.9128767 11.510402,38.5510887 11.510402,34.4060928 C11.510402,33.7142176 12.0696574,33.1549622 12.7615326,33.1549622 L25.2728391,33.1549622 C25.9647144,33.1549622 26.5239698,33.7142176 26.5239698,34.4060928 C26.5239698,38.5510887 23.1621817,41.9128767 19.0171859,41.9128767" id="Fill-127" stroke="none" fill="#666666" fill-rule="evenodd"></path>
                                <path d="M14.8525327,29.1506199 C15.251914,29.8774104 15.7459689,30.4377301 16.3205088,30.8438232 C17.0711282,31.3743719 17.9670559,31.6527009 19.0171859,31.6527009 C20.0363332,31.6527009 20.9102527,31.3902285 21.6471131,30.8900619 C22.2273366,30.4962174 22.7272415,29.9493808 23.1332988,29.2374198 L23.1332988,29.2374198 L24.0655862,29.1506763 C25.1524546,29.1624071 26.136482,29.609431 26.8518608,30.3248098 C27.5768543,31.0498033 28.0262311,32.0507151 28.0262311,33.1549622 L28.0262311,33.1549622 L28.0262311,35.6572235 L10.2592713,35.9083541 L10.0081407,33.1549622 C10.0081407,32.0507151 10.4575174,31.0498033 11.1825109,30.3248098 C11.9075044,29.5998164 12.9084162,29.1504396 14.0124486,29.1504396 L14.0124486,29.1504396 Z" id="Path" stroke="#666666" stroke-width="2" fill="#7FDB65" fill-rule="evenodd"></path>
                                <path d="M1.89721452,20.6131281 C8.7258856,17.0961999 7.75751047,13.1363714 7.75751047,13.1363714 L16.515425,6.88071812 L15.3631337,6.01743797 C11.622253,6.82191498 8.34804414,8.83498419 5.94837556,11.6137454 C2.75298788,11.8852407 0.250726582,16.8897633 1.89721452,20.6131281" id="Fill-141" stroke="none" fill="#7FDB65" fill-rule="evenodd"></path>
                                <path d="M12.2887303,8.36330793 C10.4908556,9.19906321 8.84311654,10.3701215 7.46061717,11.811424 L12.2887303,8.36330793 Z" id="Fill-143" stroke="none" fill="#666666" fill-rule="evenodd"></path>
                                <path d="M15.3021655,5.77318788 L16.6662304,6.68144122 C16.7296646,6.72895469 16.7672561,6.80367108 16.7662589,6.88319348 C16.7652472,6.96387829 16.7258198,7.03883213 16.6607066,7.08541339 L16.6607066,7.08541339 L8.0263193,13.2530213 C8.11030813,13.9290187 8.03879387,15.5792224 6.50079449,17.4433666 C5.58254361,18.5563397 4.16477573,19.727979 2.01026514,20.837253 C1.99474097,20.8452865 1.97853581,20.8514663 1.96190365,20.8558668 C1.81624474,20.8267426 1.70696127,20.8020962 1.66777053,20.7139194 C0.768486942,18.6817148 0.998703935,16.1276664 2.22797533,14.0514171 C3.05860886,12.6492659 4.22270319,11.6876632 5.51595076,11.4222737 C5.61840654,11.4012485 5.72183816,11.3845592 5.82628352,11.371628 C5.90151682,11.2855869 5.97762136,11.2002606 6.05458848,11.1156674 C8.50318878,8.42445568 11.7727667,6.53247523 15.3021655,5.77318788 L15.3021655,5.77318788 Z" id="Path" stroke="#666666" stroke-width="2" fill="#7FDB65" fill-rule="evenodd"></path>
                                <path d="M34.0307536,16.8902638 C29.6517964,17.5158291 26.5252209,13.1368718 20.2683165,13.1368718 C14.0126633,13.1368718 12.7615326,14.3880025 7.75701002,13.1368718 C7.75701002,4.37895727 15.2637939,1.87669597 21.5194472,1.87669597 C27.7751004,1.87669597 35.2818843,8.13234922 39.0352762,8.13234922 C40.2864069,11.8857412 38.4097109,16.2646984 34.0307536,16.8902638" id="Fill-145" stroke="none" fill="#7FDB65" fill-rule="evenodd"></path>
                                <path d="M21.5194472,1.62556532 C25.1993861,1.62556532 29.0767587,3.63707359 32.5052005,5.37352586 C35.1225275,6.69899299 37.6036152,7.88121857 39.0352762,7.88121857 C39.9655255,10.1285029 39.7326709,12.4294131 38.6345336,14.2071403 C37.636316,15.8257253 36.0088845,16.8610571 34.0674741,17.138865 C33.7554708,17.1832821 33.4532215,17.2039509 33.1574645,17.2039509 C31.2557363,17.2039509 29.6210598,16.378815 27.8972249,15.5475362 C25.6589349,14.4703292 23.3531688,13.3880025 20.2683165,13.3880025 C17.9042734,13.3880025 16.2741198,13.5665627 14.8366898,13.7247193 C14.4328309,13.7693244 14.069009,13.8145841 13.7202289,13.8579983 C12.0705096,14.0633462 10.7742423,14.2248439 7.85396156,13.9403781 C7.18868817,13.8755735 6.72114994,13.6893597 6.43388572,13.3631585 C6.07196523,12.9521818 6.00569171,12.3801709 6.00569171,11.811424 C6.00569171,8.26126752 7.51754472,5.89712924 9.77962694,4.36487135 C12.9791757,2.19760538 17.5684803,1.62556532 21.5194472,1.62556532 Z" id="Path" stroke="#666666" stroke-width="2" fill="#7FDB65" fill-rule="evenodd"></path>
                                <path d="M27.2525789,19.208424 C29.4207511,20.0618489 30.8079582,21.3743466 31.4142,23.145917" id="Path-23" stroke="#7FDB65" stroke-width="2" fill="none" stroke-linecap="round" stroke-linejoin="round"></path>
                                <path d="M7.25257892,19.208424 C9.42075112,20.0618489 10.8079582,21.3743466 11.4142,23.145917" id="Path-23" stroke="#7FDB65" stroke-width="2" fill="none" stroke-linecap="round" stroke-linejoin="round" transform="translate(9.333389, 21.177171) scale(-1, 1) translate(-9.333389, -21.177171) "></path>
                            </g>
                        </g>
                    </g>
                    <g id="Face-02" transform="translate(0.000000, 42.566265)">
                        <mask id="mask-6" fill="white">
                            <use xlink:href="#path-5"></use>
                        </mask>
                        <circle stroke="#CCCCCC" stroke-width="2" cx="34.5361446" cy="34.5361446" r="33.5361446"></circle>
                        <g id="Group-43" mask="url(#mask-6)">
                            <g transform="translate(2.000000, -10.566265)">
                                <ellipse id="Oval" stroke="#666666" stroke-width="2" fill="#C9F9BB" cx="33.7624861" cy="90.8990011" rx="30.1653718" ry="19.7769145"></ellipse>
                                <path d="M39.4354681,60.7336293 L41.8252067,72.6823226 C40.3257719,78.0997598 38.8428981,82.1754132 37.3629857,84.9032716 C36.6636148,86.1923917 35.9753004,87.1671096 35.2799682,87.8123484 C34.7494932,88.3046068 34.2315395,88.600444 33.6940076,88.600444 C33.1581842,88.600444 32.6440709,88.3055159 32.1193646,87.8149173 C31.4299798,87.1703448 30.7504295,86.1965573 30.0622505,84.9088092 C28.6043714,82.1807678 27.1545591,78.1045765 25.6989823,72.6862388 L25.6989823,72.6862388 L28.0895042,60.7336293 L39.4354681,60.7336293 Z" id="Rectangle" stroke="#666666" stroke-width="2" fill="#EEEEEE"></path>
                                <g id="Group-7" stroke="none" stroke-width="1" fill="none">
                                    <path d="M29.1605818,25.8307705 C29.1605818,25.8307705 30.6793621,28.8473824 27.6418015,30.3556884 C24.6042409,31.8639944 23.0854606,27.3390765 23.0854606,27.3390765 C23.0854606,27.3390765 21.2750745,34.3164998 13.9727788,36.3889122 C3.34131667,39.4055241 -5.77136515,19.7975467 12.4539985,16.7809348 C12.4539985,16.7809348 8.65704772,14.5184759 10.9352182,12.2560169 C13.9727788,9.23940502 17.0103394,12.2560169 17.0103394,12.2560169 C17.0103394,12.2560169 13.9074712,4.42640072 20.0479,3.2061812 C27.6418015,1.69787524 29.1605818,7.73109907 29.1605818,10.747711 C29.1605818,10.747711 32.1981424,-1.31873667 45.8671651,3.2061812 C59.5361879,7.73109907 53.4610667,21.3058527 53.4610667,21.3058527 C53.4610667,21.3058527 74.7239909,18.2892408 76.2427712,34.8806063 C77.7615515,51.4719718 67.1300894,52.9802777 64.0925288,52.9802777 C64.0925288,52.9802777 70.16765,55.9968896 65.6113091,60.5218075 C61.0549682,65.0467254 58.0174076,60.5218075 58.0174076,60.5218075 C58.0174076,60.5218075 62.5737485,65.0467254 54.979847,71.0799492 C47.3859454,77.113173 41.3108242,66.5550313 41.3108242,66.5550313" id="Fill-63" fill="#7FDB65"></path>
                                    <path d="M16.1001819,43.9364752 C11.543841,43.9364752 8.65173199,47.690654 8.65173199,52.2155719 C8.65173199,56.7404897 11.6892926,58.2487957 14.7268532,58.2487957 C14.7268532,58.2487957 10.1705123,61.2654076 13.2080729,64.2820195 C16.2456335,67.2986314 21.0588216,62.7565287 21.0588216,61.2482227 L16.1001819,43.9364752 Z" id="Fill-65" fill="#7FDB65"></path>
                                    <path d="M33.7169227,68.0633373 L33.7169227,68.0633373 C24.7621941,68.0633373 17.2989076,60.2216546 16.5562241,50.0255064 L15.5553479,36.3104803 C14.6698989,24.1731423 23.055085,13.7643229 33.7169227,13.7643229 C44.3787604,13.7643229 52.7639465,24.1731423 51.8784976,36.3104803 L50.8776214,50.0255064 C50.1349378,60.2216546 42.6716514,68.0633373 33.7169227,68.0633373" id="Fill-67" fill="#EEEEEE"></path>
                                    <path d="M36.7544833,63.5384194 C27.7997547,63.5384194 20.3364683,55.6967368 19.5937847,45.5005885 L18.5929085,31.7855624 C18.2754834,27.4340998 19.1654886,23.3164245 20.9075296,19.8096132 C17.227525,23.9770625 15.0875635,29.8926385 15.5553479,36.3104803 L16.5562241,50.0255064 C17.2989076,60.2216546 24.7621941,68.0633373 33.7169227,68.0633373 C40.1428822,68.0633373 45.785151,64.0120275 48.743735,57.9652289 C45.6317542,61.4177413 41.3989135,63.5384194 36.7544833,63.5384194" id="Fill-69" fill="#DDDDDD"></path>
                                    <path d="M51.5047257,30.0935448 C49.7156025,20.8250047 42.4938022,13.7646246 33.7167708,13.7646246 C31.7742508,13.7646246 29.9107074,14.1175681 28.1625913,14.7570899 C27.8132718,15.945635 27.7418891,16.7767115 27.7418891,16.7767115 C27.659875,16.2819872 27.5171096,15.7073226 27.3120743,15.1115418 C19.9232081,18.2850175 14.8580758,26.7496305 15.555196,36.310782 L16.1748583,44.8010362 C16.419382,44.7120461 16.6654244,44.6245644 16.9069105,44.5114415 C23.7763538,41.3002581 24.4339856,34.1237383 24.4339856,34.1237383 C24.4339856,34.1237383 26.6665927,38.346995 29.4201414,36.3711142 C32.1721713,34.39825 30.1856066,31.6636913 30.1856066,31.6636913 C30.1856066,31.6636913 36.0070915,35.3047419 41.4109119,34.4299244 C45.0377592,33.8416851 49.1126468,32.6124158 51.5047257,30.0935448" id="Fill-71" fill="#DDDDDD"></path>
                                    <path d="M33.7169225,14.0207228 C38.3147151,14.0207228 42.6776679,15.9918731 46.011343,19.550277 C50.048616,23.8606567 52.0897232,29.9237386 51.6333102,36.1765828 L51.6333102,36.1765828 L50.6711907,49.3590756 C50.3073858,54.3515904 48.2525408,58.8062538 45.1740709,62.0104373 C42.1356766,65.1729086 38.0966454,67.1164559 33.7169225,67.1164559 C29.3371997,67.1164559 25.2981685,65.1729086 22.2597742,62.0104373 C19.1813043,58.8062538 17.1264593,54.3515904 16.7626461,49.3589619 L16.7626461,49.3589619 L15.8005343,36.1765747 C15.3441218,29.9237386 17.3852291,23.8606567 21.4224271,19.550357 C24.7561772,15.9918731 29.11913,14.0207228 33.7169225,14.0207228 Z" id="Path" stroke="#666666" stroke-width="2"></path>
                                    <path d="M29.1605818,41.6679831 C29.1605818,42.9168604 28.1399614,43.930442 26.8824114,43.930442 C25.6248613,43.930442 24.6042409,42.9168604 24.6042409,41.6679831 C24.6042409,40.4191057 25.6248613,39.4055241 26.8824114,39.4055241 C28.1399614,39.4055241 29.1605818,40.4191057 29.1605818,41.6679831" id="Fill-75" fill="#666666"></path>
                                    <path d="M42.8296045,41.6679831 C42.8296045,42.9168604 41.8089842,43.930442 40.5514341,43.930442 C39.293884,43.930442 38.2732636,42.9168604 38.2732636,41.6679831 C38.2732636,40.4191057 39.293884,39.4055241 40.5514341,39.4055241 C41.8089842,39.4055241 42.8296045,40.4191057 42.8296045,41.6679831" id="Fill-77" fill="#666666"></path>
                                    <path d="M33.7169227,59.0135016 L33.7169227,59.0135016 C29.5220515,59.0135016 26.1230212,55.6379128 26.1230212,51.4719718 L26.1230212,49.9636658 C26.1230212,49.1295726 26.801916,48.4553599 27.6418015,48.4553599 L39.7920439,48.4553599 C40.6319294,48.4553599 41.3108242,49.1295726 41.3108242,49.9636658 L41.3108242,51.4719718 C41.3108242,55.6379128 37.9117939,59.0135016 33.7169227,59.0135016" id="Fill-79" fill="#666666"></path>
                                    <path d="M53.4610667,21.3058527 C53.4610667,21.3058527 59.5361879,7.73109907 45.8671651,3.2061812 C32.1981424,-1.31873667 29.1605818,10.747711 29.1605818,10.747711 C29.1605818,7.73109907 27.6418015,1.69787524 20.0479,3.2061812 C13.9074712,4.42640072 17.0103394,12.2560169 17.0103394,12.2560169 C17.0103394,12.2560169 13.9727788,9.23940502 10.9352182,12.2560169 C8.65704772,14.5184759 12.4539985,16.7809348 12.4539985,16.7809348 C-5.77136515,19.7975467 3.34131667,39.4055241 13.9727788,36.3889122 C21.2750745,34.3164998 23.0854606,27.3390765 23.0854606,27.3390765 C23.0854606,27.3390765 24.6042409,31.8639944 27.6418015,30.3556884 C30.6793621,28.8473824 29.1605818,25.8307705 29.1605818,25.8307705 C29.1605818,25.8307705 34.3168409,30.3556884 39.7920439,30.3556884 C45.8671651,30.3556884 53.4610667,28.8473824 53.4610667,21.3058527" id="Fill-81" fill="#7FDB65"></path>
                                    <path d="M53.4610667,41.9138301 C55.2797987,41.9138301 56.9290569,42.6484489 58.1235906,43.8347444 C59.3156081,45.0185412 60.0549682,46.6526448 60.0549682,48.4553599 C60.0549682,50.258075 59.3156081,51.8921786 58.1235906,53.0759753 C56.9290569,54.2622708 55.2797987,54.9968896 53.4610667,54.9968896 C51.6423346,54.9968896 49.9930764,54.2622708 48.7985427,53.0759753 C47.6065252,51.8921786 46.8671651,50.258075 46.8671651,48.4553599 C46.8671651,46.6526448 47.6065252,45.0185412 48.7985427,43.8347444 C49.9930764,42.6484489 51.6423346,41.9138301 53.4610667,41.9138301 Z" id="Path" stroke="#9FF487" stroke-width="2"></path>
                                    <path d="M29.1605818,25.8307705 C30.1275386,28.0028023 29.6212785,29.5111083 27.6418015,30.3556884 C25.6623245,31.2002685 24.1591654,30.3338925 23.1323242,27.7565604 C20.163737,33.7210767 16.1676432,36.7033348 11.144043,36.7033348 C6.12044271,36.7033348 2.84985352,32.7387466 1.33227539,24.8095703" id="Path-18" stroke="#666666" stroke-width="2" stroke-linecap="round" stroke-linejoin="round"></path>
                                    <path d="M45.8671651,29.5 C49.2408738,29.0704753 51.3946085,27.849528 52.3283691,25.8371582" id="Path-19" stroke="#666666" stroke-width="2" stroke-linecap="round" stroke-linejoin="round"></path>
                                    <path d="M16.2038574,44.5 C12.1819311,44.1483469 9.66455595,45.7463287 8.65173199,49.2939453 C7.13249606,54.6153703 10.8051758,58.4873047 13.925293,58.4873047 C17.0454102,58.4873047 10.275957,60.1435473 12.8837891,63.612793 C15.4916212,67.0820387 18.5282084,65.6132813 21.5662247,61.6889648" id="Path-20" stroke="#666666" stroke-width="2" stroke-linecap="round" stroke-linejoin="round"></path>
                                    <path d="M41.3108242,65.9550781 C44.077061,70.6130629 47.0178865,72.9420553 50.1333008,72.9420553 C54.8064222,72.9420553 62.5080309,68.0649414 58.6572266,61.1826172 C54.8064222,54.300293 60.3893209,65.9943848 65.5152431,61.1826172 C68.9325246,57.9747721 68.4582865,55.240659 64.0925288,52.9802777 C66.8390092,52.6506525 68.5631863,52.1404622 69.2650602,51.449707" id="Path-21" stroke="#666666" stroke-width="2" stroke-linecap="round" stroke-linejoin="round"></path>
                                    <path d="M54.8064222,14.6972656 C54.6646502,18.1519442 54.2161983,20.3548065 53.4610667,21.3058527 C52.3283691,22.7324219 55.8519272,20.1419012 60.3898926,20.723877" id="Path-22" stroke="#666666" stroke-width="2" stroke-linecap="round" stroke-linejoin="round"></path>
                                </g>
                            </g>
                        </g>
                    </g>
                    <g id="Face-06" transform="translate(112.927711, 42.566265)">
                        <mask id="mask-8" fill="white">
                            <use xlink:href="#path-7"></use>
                        </mask>
                        <circle stroke="#CCCCCC" stroke-width="2" cx="34.5361446" cy="34.5361446" r="33.5361446"></circle>
                        <path d="M33.8845192,51.4837349 C40.9450797,51.4837349 48.1695418,52.2168178 55.5578988,53.681696 L55.5578988,53.681696 L55.0580719,80.7617527 L12.7292566,80.7617527 L12.7292541,53.6772511 L13.9045502,53.4403057 C20.5645384,52.1360496 27.2245154,51.4837349 33.8845192,51.4837349 Z" id="Rectangle" stroke="#666666" stroke-width="2" fill="#666666" mask="url(#mask-8)"></path>
                        <path d="M46.4017037,51.8267788 C46.6594827,51.8267788 46.8961367,51.9247676 47.0744559,52.0869109 C47.252775,52.2490542 47.3727594,52.4753519 47.3971992,52.7319697 L47.3971992,52.7319697 L49.6227483,76.1002352 C49.6489291,76.3751337 49.5612067,76.6346195 49.3982146,76.8319258 C49.2429998,77.0198173 49.0195272,77.1513218 48.7611593,77.1860529 L48.7611593,77.1860529 L20.4450364,77.1950443 C20.168894,77.1950443 19.918894,77.0831155 19.7379296,76.9021511 C19.5655944,76.7298159 19.4558679,76.4948721 19.4457952,76.2343647 L19.4457952,76.2343647 L21.67509,52.7319697 C21.6995298,52.4753519 21.8195141,52.2490542 21.9978333,52.0869109 C22.1761525,51.9247676 22.4128064,51.8267788 22.6705855,51.8267788 L22.6705855,51.8267788 Z" id="Rectangle" stroke="#666666" stroke-width="2" fill="#DDDDDD" mask="url(#mask-8)"></path>
                        <path d="M55.5918668,53.7655652 L58.4601356,63.4659928 L38.3822544,73.1664203 L55.5918668,53.7655652 Z" id="Path-2" stroke="#666666" stroke-width="2" fill="#999999" mask="url(#mask-8)"></path>
                        <path d="M29.526852,53.7655652 L32.3951208,63.4659928 L12.3172396,73.1664203 L29.526852,53.7655652 Z" id="Path-2" stroke="#666666" stroke-width="2" fill="#999999" mask="url(#mask-8)" transform="translate(20.924415, 63.996924) scale(-1, 1) translate(-20.924415, -63.996924) "></path>
                        <g id="Group-4" mask="url(#mask-8)">
                            <g transform="translate(14.032507, 9.122755)">
                                <path d="M39.0161832,10.3254831 L39.454253,32.4943851 C39.454253,37.8089619 37.3076534,42.62795 33.8414272,46.1182471 C30.3776998,49.6060282 25.5957263,51.7671744 20.321276,51.7671744 C15.0468257,51.7671744 10.2648523,49.6060282 6.80112481,46.1182471 C3.33489868,42.62795 1.18829909,37.8089619 1.18829909,32.4943851 L1.18829909,32.4943851 L1.18829909,10.7735394 L39.0161832,10.3254831 Z" id="Path" stroke="#666666" stroke-width="2" fill="#DDDDDD"></path>
                                <path d="M8.81671778,49.141386 C8.81671778,50.2230841 9.41495481,51.2150027 10.3626428,51.7203744 C13.3380092,53.3074442 16.7217874,54.2153755 20.321276,54.2153755 C23.9207647,54.2153755 27.3045429,53.3074442 30.2799093,51.7203744 C31.2275972,51.2150027 31.8258343,50.2230841 31.8258343,49.141386 L31.8258343,31.0464735 L8.81671778,31.0464735 L8.81671778,49.141386 Z" id="Fill-261" stroke="none" fill="#51A33D"></path>
                                <path d="M36.1400436,1.63714481 C37.0528762,1.63714481 37.8801309,2.01213467 38.4795618,2.61572823 C39.0814916,3.22183809 39.454253,4.05864481 39.454253,4.98131393 L39.454253,4.98131393 L39.454253,15.1177086 C36.7396887,14.87003 29.3870976,14.1177086 20.321276,14.1177086 C11.4524413,14.1177086 4.22319396,14.8376915 1.98773085,15.5004948 C1.69957996,15.5056826 1.46539723,15.4672385 1.3034193,15.3539879 L1.3034193,15.3539879 L1.18829909,4.98131393 C1.18829909,4.05864481 1.56106046,3.22183809 2.16299025,2.61572823 C2.7624211,2.01213467 3.58967587,1.63714481 4.50250843,1.63714481 L4.50250843,1.63714481 Z" id="Path" stroke="#666666" stroke-width="2" fill="#51A33D"></path>
                                <path d="M13.1309271,24.530075 C13.1309271,25.7290657 12.1645442,26.7021596 10.9738224,26.7021596 C9.78310067,26.7021596 8.81671778,25.7290657 8.81671778,24.530075 C8.81671778,23.3310843 9.78310067,22.3579905 10.9738224,22.3579905 C12.1645442,22.3579905 13.1309271,23.3310843 13.1309271,24.530075" id="Fill-263" stroke="none" fill="#666666"></path>
                                <path d="M31.8258343,24.530075 C31.8258343,25.7290657 30.8594514,26.7021596 29.6687296,26.7021596 C28.4780078,26.7021596 27.5116249,25.7290657 27.5116249,24.530075 C27.5116249,23.3310843 28.4780078,22.3579905 29.6687296,22.3579905 C30.8594514,22.3579905 31.8258343,23.3310843 31.8258343,24.530075" id="Fill-264" stroke="none" fill="#666666"></path>
                                <path d="M20.321276,41.1827233 C26.1195734,41.1827233 30.9169742,36.8631712 31.7107887,31.2447124 C31.8330246,30.3758786 31.1456273,29.5982723 30.274157,29.5982723 L10.3683951,29.5982723 C9.49692478,29.5982723 8.80952743,30.3758786 8.93176336,31.2447124 C9.72557788,36.8631712 14.5229787,41.1827233 20.321276,41.1827233" id="Fill-265" stroke="none" fill="#666666"></path>
                            </g>
                        </g>
                    </g>
                </g>
            </g>
        </g>
    </g>
</svg>