<?xml version="1.0" encoding="UTF-8"?>
<svg width="255px" height="158px" viewBox="0 0 255 158" version="1.1" xmlns="http://www.w3.org/2000/svg" xmlns:xlink="http://www.w3.org/1999/xlink">
    <title>Board</title>
    <g id="Newsletter" stroke="none" stroke-width="1" fill="none" fill-rule="evenodd">
        <g id="W---Newsletter" transform="translate(-592.000000, -460.000000)">
            <g id="Highlight-" transform="translate(100.000000, 410.000000)">
                <g id="Card" transform="translate(425.000000, 0.000000)">
                    <g id="Board" transform="translate(68.000000, 51.000000)">
                        <path d="M231.800286,118.006211 C231.681823,117.412836 231.40018,117.020442 231.084802,117.010872 L19.2641447,110.630492 C19.0703681,110.644848 18.8483486,110.793192 18.6977206,111.097855 L15.9518973,116.680687 C15.8051918,116.97897 15.7220326,117.384124 15.7220326,117.808419 L15.7220326,124.188798 C15.7220326,125.070886 16.073498,125.783893 16.5065536,125.783893 L228.327211,125.783893 C228.535894,125.783893 228.735162,125.616408 228.881868,125.31653 L231.627691,119.733699 C231.850495,119.280692 231.918748,118.599586 231.800286,118.006211" id="Fill-1" fill="#DDDDDD"></path>
                        <line x1="0.568951013" y1="155.404905" x2="252.59393" y2="155.404905" id="Stroke-3" stroke="#666666" stroke-width="2" stroke-linecap="round" stroke-linejoin="round"></line>
                        <polygon id="Fill-5" fill="#DDDDDD" points="22.9002783 118.605966 230.262603 118.605966 230.262603 112.225587 22.9002783 112.225587"></polygon>
                        <polygon id="Stroke-7" stroke="#666666" stroke-width="2" stroke-linecap="round" stroke-linejoin="round" points="22.9002783 118.605966 230.262603 118.605966 230.262603 112.225587 22.9002783 112.225587"></polygon>
                        <polygon id="Fill-8" fill="#C9F9BB" points="26.0904679 112.225587 227.072413 112.225587 227.072413 0.568951013 26.0904679 0.568951013"></polygon>
                        <path d="M204.373417,41.3778565 C203.858201,40.1863206 202.858076,39.2468098 201.554884,38.7331893 C200.789238,38.4269311 199.974145,38.3152744 199.162242,38.3503665 L199.80347,36.0470496 C200.041139,35.1936739 199.463715,34.3275374 198.511443,34.1121996 C197.555981,33.8936716 196.597329,34.4200529 196.36285,35.2750237 L195.200026,39.4509819 L194.17438,39.8114734 C192.764317,40.3043577 191.7291,41.2869361 191.194743,42.4577357 C191.081492,42.5566315 190.953884,42.6395765 190.845417,42.7464478 C185.283322,48.2941875 179.381471,53.8530929 176.58846,56.1883117 L175.031648,56.0176366 C174.32183,55.9362867 173.55778,55.8517467 172.761828,55.7656116 L172.758638,55.7656116 L164.776783,54.8372664 C163.033344,54.2965293 161.549906,53.5452396 160.115916,52.8194715 C158.981804,52.2436423 157.823765,51.667813 156.550879,51.1844993 C157.002291,50.3454795 157.278242,49.4155392 157.278242,48.4217951 L157.278242,48.2909973 C161.513219,46.0786009 164.374819,41.9664465 164.374819,37.2561315 C164.374819,34.8220168 163.599603,32.5521969 162.275674,30.6125616 C162.269294,30.601396 162.267699,30.5886352 162.261319,30.5790646 C162.243773,30.5551382 162.223036,30.534402 162.207085,30.5120707 C161.897637,30.0654441 161.567452,29.6363636 161.202176,29.2312095 C161.200581,29.2280193 161.19739,29.2248292 161.1942,29.221639 C160.84647,28.8372211 160.473217,28.4735395 160.077634,28.1258088 C159.943646,28.0093669 159.803278,27.9024956 159.664504,27.7892438 C159.415669,27.5866668 159.162049,27.3920652 158.898859,27.2070342 C158.705852,27.0714512 158.512846,26.9390583 158.313459,26.8130458 C158.077385,26.6631069 157.83174,26.5259288 157.584501,26.3903457 C157.375543,26.2739038 157.171371,26.1510815 156.956033,26.0474003 C156.533333,25.8384429 156.094682,25.6518168 155.648056,25.4827368 C155.439098,25.402982 155.225355,25.3407733 155.011613,25.2721842 C154.708545,25.1748835 154.405477,25.0791778 154.094433,24.999423 C154.014678,24.9802819 153.939709,24.94838 153.858359,24.9292389 C151.476883,20.8824833 146.749022,18.1149939 141.311343,18.1149939 C133.485808,18.1149939 127.11819,23.8397891 127.11819,30.8757523 C127.11819,36.7632472 131.58286,41.7192068 137.623484,43.1850989 C138.874039,45.3145504 140.773797,47.0835106 143.085089,48.2909973 L143.085089,48.4217951 C143.085089,49.3022875 143.284476,50.1397122 143.644967,50.9037626 C140.536127,51.7794697 137.794159,53.3235215 136.077837,55.5901512 C129.255617,59.5539618 125.015855,65.9949546 123.642478,74.6371782 C121.816095,86.1186706 121.795359,103.514775 121.795359,104.250113 C121.795359,107.768892 124.979168,110.630492 128.89353,110.630492 C130.166416,110.630492 131.343596,110.303498 132.375622,109.775522 C132.41231,110.319449 132.439426,110.675155 132.445807,110.748529 C132.480899,111.169635 132.696236,111.539696 133.020041,111.806077 L133.053538,112.225587 L165.030403,112.225587 L164.926722,110.895278 C165.930037,110.724603 166.499486,110.598591 166.57924,110.58264 C167.391143,110.399204 167.952617,109.730859 167.920715,108.976379 C167.911144,108.703618 166.788198,81.6619757 166.148565,73.943312 L166.148565,70.6398706 C166.148565,69.9109123 166.48513,69.2457578 167.094456,68.7656342 C167.705377,68.2887009 168.478998,68.0765533 169.286116,68.1738541 L171.02796,68.3844066 C171.782439,68.492873 172.562441,68.5981493 173.417412,68.6954501 C174.197413,68.7831803 174.852997,68.8565546 175.419256,68.9171683 L175.443182,68.9203584 L175.444777,68.9203584 C176.990424,69.0862483 177.848585,69.1580276 178.566378,69.1580276 C181.686383,69.1580276 183.445773,69.1452668 200.575496,52.0984886 L202.944212,51.2690393 C205.678204,50.3135776 207.037225,47.5333273 205.973297,45.072096 L204.373417,41.3778565 Z" id="Fill-9" fill="#9FF487"></path>
                        <polygon id="Stroke-10" stroke="#666666" stroke-width="2" stroke-linecap="round" stroke-linejoin="round" points="26.0904679 112.225587 227.072413 112.225587 227.072413 0.568951013 26.0904679 0.568951013"></polygon>
                        <line x1="50.0168899" y1="27.6855627" x2="50.0168899" y2="91.4893548" id="Stroke-19" stroke="#FFFFFF" stroke-width="2" stroke-linecap="round" stroke-linejoin="round"></line>
                        <line x1="48.4217951" y1="91.4893548" x2="198.360707" y2="91.4893548" id="Stroke-20" stroke="#FFFFFF" stroke-width="2" stroke-linecap="round" stroke-linejoin="round"></line>
                        <polyline id="Stroke-21" stroke="#FFFFFF" stroke-width="2" stroke-linecap="round" stroke-linejoin="round" points="56.3972691 75.5384068 70.7531224 64.3727432 86.7040704 78.7285964 104.250113 59.5874587 121.796156 51.6119847 139.342199 69.1580276 201.550896 27.6855627"></polyline>
                        <line x1="93.0844496" y1="110.061541" x2="101.059924" y2="110.061541" id="Stroke-40" stroke="#FFFFFF" stroke-width="2" stroke-linecap="round" stroke-linejoin="round"></line>
                        <path d="M140.937294,105.845208 C138.294222,105.845208 136.152009,103.702996 136.152009,101.059924 C136.152009,100.32937 136.17115,83.0433278 137.794957,71.671897 C139.490543,59.810772 146.319144,52.3552989 157.545421,50.1110005 C160.14383,49.5925947 162.656105,51.2722295 163.17451,53.8642586 C163.694511,56.4546926 162.013281,58.9765374 159.421252,59.4933482 C152.146025,60.9496697 148.399147,65.1224377 147.26982,73.0245374 C145.740124,83.7308137 145.722578,100.889248 145.722578,101.059924 C145.722578,103.702996 143.580366,105.845208 140.937294,105.845208" id="Fill-41" fill="#FFFFFF"></path>
                        <path d="M136.197151,96.7077075 C136.197151,96.7077075 139.444764,97.8418199 145.7741,97.0586283" id="Stroke-42" stroke="#666666" stroke-width="2" stroke-linecap="round" stroke-linejoin="round"></path>
                        <path d="M140.937294,105.845208 C138.294222,105.845208 136.152009,103.702996 136.152009,101.059924 C136.152009,100.32937 136.17115,83.0433278 137.794957,71.671897 C139.490543,59.810772 146.319144,52.3552989 157.545421,50.1110005 C160.14383,49.5925947 162.656105,51.2722295 163.17451,53.8642586 C163.694511,56.4546926 162.013281,58.9765374 159.421252,59.4933482 C152.146025,60.9496697 148.399147,65.1224377 147.26982,73.0245374 C145.740124,83.7308137 145.722578,100.889248 145.722578,101.059924 C145.722578,103.702996 143.580366,105.845208 140.937294,105.845208 Z" id="Stroke-43" stroke="#666666" stroke-width="2" stroke-linecap="round" stroke-linejoin="round"></path>
                        <line x1="201.550896" y1="38.8512263" x2="203.145991" y2="32.4708471" id="Stroke-44" stroke="#FFFFFF" stroke-width="2" stroke-linecap="round" stroke-linejoin="round"></line>
                        <path d="M160.092468,109.036993 C159.720811,109.036993 159.344369,109.017852 158.967926,108.979569 C152.831597,108.367053 148.355761,102.894283 148.968277,96.759548 C150.44693,81.969829 148.957111,60.5955587 148.94116,60.381816 C148.502509,54.2311304 153.134665,48.8891579 159.283755,48.4505068 C165.426465,48.0389724 170.776413,52.6408209 171.216659,58.7915064 C171.283653,59.743778 172.859607,82.2697069 171.187948,98.97992 C170.613714,104.739807 165.758245,109.036993 160.092468,109.036993" id="Fill-45" fill="#FFFFFF"></path>
                        <path d="M160.092468,109.036993 C159.720811,109.036993 159.344369,109.017852 158.967926,108.979569 C152.831597,108.367053 148.355761,102.894283 148.968277,96.759548 C150.44693,81.969829 148.957111,60.5955587 148.94116,60.381816 C148.502509,54.2311304 153.134665,48.8891579 159.283755,48.4505068 C165.426465,48.0389724 170.776413,52.6408209 171.216659,58.7915064 C171.283653,59.743778 172.859607,82.2697069 171.187948,98.97992 C170.613714,104.739807 165.758245,109.036993 160.092468,109.036993 Z" id="Stroke-46" stroke="#CCCCCC" stroke-width="2" stroke-linecap="round" stroke-linejoin="round"></path>
                        <path d="M160.078431,50.0168899 C157.435359,50.0168899 155.293147,47.8746776 155.293147,45.2316055 L155.293147,38.8512263 C155.293147,36.2081542 157.435359,34.0659419 160.078431,34.0659419 C162.721503,34.0659419 164.863716,36.2081542 164.863716,38.8512263 L164.863716,45.2316055 C164.863716,47.8746776 162.721503,50.0168899 160.078431,50.0168899" id="Fill-47" fill="#DDDDDD"></path>
                        <path d="M159.052288,54.1214651 C156.975989,54.1214651 155.293147,51.9792528 155.293147,49.3361807 L155.293147,42.9558015 C155.293147,40.3127294 156.975989,38.1705171 159.052288,38.1705171 C161.128587,38.1705171 162.811429,40.3127294 162.811429,42.9558015 L162.811429,49.3361807 C162.811429,51.9792528 161.128587,54.1214651 159.052288,54.1214651" id="Fill-48" fill="#FFFFFF"></path>
                        <path d="M160.16733,56.1737527 C158.04193,56.1737527 156.319291,54.0315403 156.319291,51.3884683 L156.319291,45.008089 C156.319291,42.365017 158.04193,40.2228046 160.16733,40.2228046 C162.29273,40.2228046 164.015369,42.365017 164.015369,45.008089 L164.015369,51.3884683 C164.015369,54.0315403 162.29273,56.1737527 160.16733,56.1737527 Z" id="Stroke-49" stroke="#666666" stroke-width="2" stroke-linecap="round" stroke-linejoin="round"></path>
                        <path d="M171.244095,34.0659419 C171.244095,40.2325784 166.245068,45.2316055 160.078431,45.2316055 C153.911795,45.2316055 148.912768,40.2325784 148.912768,34.0659419 C148.912768,27.8993054 153.911795,22.9002783 160.078431,22.9002783 C166.245068,22.9002783 171.244095,27.8993054 171.244095,34.0659419" id="Fill-50" fill="#FFFFFF"></path>
                        <path d="M171.244095,34.0659419 C171.244095,40.2325784 166.245068,45.2316055 160.078431,45.2316055 C153.911795,45.2316055 148.912768,40.2325784 148.912768,34.0659419 C148.912768,27.8993054 153.911795,22.9002783 160.078431,22.9002783 C166.245068,22.9002783 171.244095,27.8993054 171.244095,34.0659419 Z" id="Stroke-51" stroke="#666666" stroke-width="2" stroke-linecap="round" stroke-linejoin="round"></path>
                        <path d="M169.580411,28.2245452 C167.616849,25.0343556 164.099665,22.9001188 160.078431,22.9001188 C153.911795,22.9001188 148.912768,27.8991459 148.912768,34.0657824 C148.912768,35.8522886 149.341848,37.5351136 150.088353,39.0313125 C151.90038,39.9293509 153.930936,40.4461616 156.090694,40.4461616 C163.126658,40.4461616 168.910471,35.085048 169.580411,28.2245452" id="Fill-52" fill="#7FDB65"></path>
                        <path d="M169.580411,28.2245452 C167.616849,25.0343556 164.099665,22.9001188 160.078431,22.9001188 C153.911795,22.9001188 148.912768,27.8991459 148.912768,34.0657824 C148.912768,35.8522886 149.341848,37.5351136 150.088353,39.0313125 C151.90038,39.9293509 153.930936,40.4461616 156.090694,40.4461616 C163.126658,40.4461616 168.910471,35.085048 169.580411,28.2245452 Z" id="Stroke-53" stroke="#666666" stroke-width="2" stroke-linecap="round" stroke-linejoin="round"></path>
                        <path d="M163.268621,27.6855627 C163.268621,21.5189262 158.269594,16.519899 152.102957,16.519899 C145.936321,16.519899 140.937294,21.5189262 140.937294,27.6855627 C140.937294,33.8521992 145.936321,38.8512263 152.102957,38.8512263 C158.269594,38.8512263 163.268621,33.8521992 163.268621,27.6855627" id="Fill-54" fill="#7FDB65"></path>
                        <path d="M163.268621,27.6855627 C163.268621,21.5189262 158.269594,16.519899 152.102957,16.519899 C145.936321,16.519899 140.937294,21.5189262 140.937294,27.6855627 C140.937294,33.8521992 145.936321,38.8512263 152.102957,38.8512263 C158.269594,38.8512263 163.268621,33.8521992 163.268621,27.6855627 Z" id="Stroke-55" stroke="#666666" stroke-width="2" stroke-linecap="round" stroke-linejoin="round"></path>
                        <path d="M150.507863,153.698052 C146.984298,153.698052 144.127483,150.841237 144.127483,147.317673 L147.317673,123.619349 L145.738529,101.514526 C145.488099,97.9989367 148.134361,94.9475204 151.648355,94.6954954 C155.1783,94.4546361 158.216956,97.0913278 158.467386,100.605322 L160.06248,122.936649 C160.073646,123.088183 160.078431,123.239717 160.078431,123.391251 L156.888242,147.317673 C156.888242,150.841237 154.031427,153.698052 150.507863,153.698052" id="Fill-56" fill="#C9F9BB"></path>
                        <path d="M150.507863,153.698052 C146.984298,153.698052 144.127483,150.841237 144.127483,147.317673 L147.317673,123.619349 L145.738529,101.514526 C145.488099,97.9989367 148.134361,94.9475204 151.648355,94.6954954 C155.1783,94.4546361 158.216956,97.0913278 158.467386,100.605322 L160.06248,122.936649 C160.073646,123.088183 160.078431,123.239717 160.078431,123.391251 L156.888242,147.317673 C156.888242,150.841237 154.031427,153.698052 150.507863,153.698052 Z" id="Stroke-57" stroke="#666666" stroke-width="2" stroke-linecap="round" stroke-linejoin="round"></path>
                        <path d="M152.102957,145.722578 L145.722578,145.722578 C143.961593,145.722578 142.532389,147.151783 142.532389,148.912768 L142.532389,155.293147 L155.293147,155.293147 L155.293147,148.912768 C155.293147,147.151783 153.863942,145.722578 152.102957,145.722578 Z" id="Stroke-58" stroke="#666666" stroke-width="2" stroke-linecap="round" stroke-linejoin="round"></path>
                        <path d="M159.95545,149.613812 L153.504886,146.260923 C152.822186,145.908407 152.066111,145.723376 151.297275,145.723376 L145.722419,145.723376 C143.961434,145.723376 142.532229,147.150986 142.532229,148.913565 L142.532229,155.293945 L160.078272,155.293945 C160.960359,155.293945 161.673367,154.579342 161.673367,153.69885 L161.673367,152.445105 C161.673367,151.253569 161.011402,150.16412 159.95545,149.613812" id="Fill-59" fill="#FFFFFF"></path>
                        <path d="M159.95545,149.613812 L153.504886,146.260923 C152.822186,145.908407 152.066111,145.723376 151.297275,145.723376 L145.722419,145.723376 C143.961434,145.723376 142.532229,147.150986 142.532229,148.913565 L142.532229,155.293945 L160.078272,155.293945 C160.960359,155.293945 161.673367,154.579342 161.673367,153.69885 L161.673367,152.445105 C161.673367,151.253569 161.011402,150.16412 159.95545,149.613812 Z" id="Stroke-60" stroke="#666666" stroke-width="2" stroke-linecap="round" stroke-linejoin="round"></path>
                        <path d="M166.458811,153.698052 C162.935246,153.698052 160.078431,150.841237 160.078431,147.317673 L160.078431,123.619349 L158.499288,101.514526 C158.248858,97.9989367 160.89512,94.9475204 164.409114,94.6954954 C167.939059,94.4546361 170.977714,97.0913278 171.228144,100.605322 L172.823239,122.936649 C172.834405,123.088183 172.83919,123.239717 172.83919,123.391251 L172.83919,147.317673 C172.83919,150.841237 169.982375,153.698052 166.458811,153.698052" id="Fill-61" fill="#C9F9BB"></path>
                        <path d="M166.458811,153.698052 C162.935246,153.698052 160.078431,150.841237 160.078431,147.317673 L160.078431,123.619349 L158.499288,101.514526 C158.248858,97.9989367 160.89512,94.9475204 164.409114,94.6954954 C167.939059,94.4546361 170.977714,97.0913278 171.228144,100.605322 L172.823239,122.936649 C172.834405,123.088183 172.83919,123.239717 172.83919,123.391251 L172.83919,147.317673 C172.83919,150.841237 169.982375,153.698052 166.458811,153.698052 Z" id="Stroke-62" stroke="#666666" stroke-width="2" stroke-linecap="round" stroke-linejoin="round"></path>
                        <path d="M169.649,145.722578 L163.268621,145.722578 C161.507636,145.722578 160.078431,147.151783 160.078431,148.912768 L160.078431,155.293147 L172.83919,155.293147 L172.83919,148.912768 C172.83919,147.151783 171.409985,145.722578 169.649,145.722578 Z" id="Stroke-63" stroke="#666666" stroke-width="2" stroke-linecap="round" stroke-linejoin="round"></path>
                        <path d="M177.501492,149.613812 L171.050929,146.260923 C170.368228,145.908407 169.612154,145.723376 168.843318,145.723376 L163.268461,145.723376 C161.507477,145.723376 160.078272,147.150986 160.078272,148.913565 L160.078272,155.293945 L177.624315,155.293945 C178.506402,155.293945 179.21941,154.579342 179.21941,153.69885 L179.21941,152.445105 C179.21941,151.253569 178.557445,150.16412 177.501492,149.613812" id="Fill-64" fill="#FFFFFF"></path>
                        <path d="M177.501492,149.613812 L171.050929,146.260923 C170.368228,145.908407 169.612154,145.723376 168.843318,145.723376 L163.268461,145.723376 C161.507477,145.723376 160.078272,147.150986 160.078272,148.913565 L160.078272,155.293945 L177.624315,155.293945 C178.506402,155.293945 179.21941,154.579342 179.21941,153.69885 L179.21941,152.445105 C179.21941,151.253569 178.557445,150.16412 177.501492,149.613812 Z" id="Stroke-65" stroke="#666666" stroke-width="2" stroke-linecap="round" stroke-linejoin="round"></path>
                        <path d="M185.599948,64.3727432 C184.803996,64.3727432 183.665098,64.2339699 181.16718,63.9229264 C177.520793,63.4667293 172.008145,62.7776484 168.053905,62.7776484 C165.410833,62.7776484 163.268621,60.635436 163.268621,57.9923639 C163.268621,55.3492919 165.410833,53.2070795 168.053905,53.2070795 C172.606306,53.2070795 178.47147,53.9408231 182.35393,54.425732 C183.030251,54.5086769 183.749638,54.5995973 184.352584,54.6713766 C186.874429,52.4430291 192.999593,45.9860854 197.99543,40.4351554 C199.759605,38.4715937 202.7855,38.3104892 204.752252,40.0794493 C206.715813,41.8484094 206.875323,44.8727092 205.106363,46.837866 C189.32609,64.3727432 187.844247,64.3727432 185.599948,64.3727432" id="Fill-66" fill="#FFFFFF"></path>
                        <path d="M163.268621,50.0168899 C166.186049,52.9343183 170.031823,53.1592267 174.142382,53.5133377 C177.120424,53.7717431 180.07773,54.1418051 182.35393,54.425732 C183.030251,54.5086769 183.749638,54.5995973 184.352584,54.6713766 C186.845717,52.4685506 192.86082,46.131239 197.824755,40.6233766 C199.555433,38.7028825 202.54145,38.2849676 204.552865,39.9087742 C206.703052,41.6474275 206.932746,44.8089054 205.106363,46.837866 C189.32609,64.3727432 187.844247,64.3727432 185.599948,64.3727432 C184.803996,64.3727432 183.665098,64.2339699 181.16718,63.9229264 C179.267422,63.6836622 177.728155,63.3837844 176.12987,63.1509005 C173.933425,62.8286914 171.949127,64.5370379 171.952317,66.7574099 C171.955507,68.4131183 171.780047,70.7276009 171.244095,73.943312" id="Stroke-67" stroke="#666666" stroke-width="2" stroke-linecap="round" stroke-linejoin="round"></path>
                        <path d="M206.938967,46.5914238 L203.96571,47.7494627 C202.322763,48.3875006 200.474048,47.5740022 199.83601,45.9326497 L198.397234,42.236815 C197.757601,40.5938674 198.5711,38.7451525 200.212452,38.1071146 L203.185709,36.9490757 C204.828657,36.3110378 206.677371,37.1229411 207.315409,38.7658887 L208.75578,42.4617234 C209.393818,44.1030759 208.58032,45.9533859 206.938967,46.5914238" id="Fill-68" fill="#FFFFFF"></path>
                        <path d="M206.938967,46.5914238 L203.96571,47.7494627 C202.322763,48.3875006 200.474048,47.5740022 199.83601,45.9326497 L198.397234,42.236815 C197.757601,40.5938674 198.5711,38.7451525 200.212452,38.1071146 L203.185709,36.9490757 C204.828657,36.3110378 206.677371,37.1229411 207.315409,38.7658887 L208.75578,42.4617234 C209.393818,44.1030759 208.58032,45.9533859 206.938967,46.5914238 Z" id="Stroke-69" stroke="#666666" stroke-width="2" stroke-linecap="round" stroke-linejoin="round"></path>
                        <path d="M172.83919,53.2070795 C168.053905,51.6119847 165.69795,48.4217951 160.078431,48.4217951 C153.698052,48.4217951 147.317673,51.6119847 147.317673,57.9923639 C147.317673,61.1825535 147.317673,77.1335016 146.102211,86.6610028 C144.888344,96.1885041 145.722578,107.440303 145.722578,107.440303 L156.888242,107.440303 C168.053905,107.440303 174.434285,105.845208 174.434285,105.845208 C174.434285,105.845208 173.422994,78.6504367 172.83919,70.7531224 L172.83919,67.449681 C172.83919,64.9772841 175.018089,63.0727409 177.468155,63.4029255 L183.004729,64.1478348" id="Fill-70" fill="#FFFFFF"></path>
                        <path d="M183.004729,64.1484728 L177.468155,63.4019685 C175.018089,63.0717838 172.83919,64.9779221 172.83919,67.448724 L172.83919,70.7537604 C173.422994,78.6510748 174.434285,105.845846 174.434285,105.845846 C174.434285,105.845846 168.053905,107.440941 156.888242,107.440941 L145.722578,107.440941 C145.722578,107.440941 144.888344,96.1891421 146.102211,86.6600458 C147.317673,77.1341396 147.317673,61.1831916 147.317673,57.993002 C147.317673,51.6126228 153.698052,48.4224332 160.078431,48.4224332 C165.69795,48.4224332 168.053905,51.6126228 172.83919,53.2077176 L180.173436,54.1552039" id="Stroke-71" stroke="#666666" stroke-width="2" stroke-linecap="round" stroke-linejoin="round"></path>
                    </g>
                </g>
            </g>
        </g>
    </g>
</svg>